<?xml version="1.0" encoding="utf-8"?>
<!-- Generator: Adobe Illustrator 24.0.0, SVG Export Plug-In . SVG Version: 6.00 Build 0)  -->
<svg version="1.1" id="图层_1" xmlns="http://www.w3.org/2000/svg" xmlns:xlink="http://www.w3.org/1999/xlink" x="0px" y="0px"
	 viewBox="0 0 120.2 30.3" style="enable-background:new 0 0 120.2 30.3;" xml:space="preserve">
<style type="text/css">
	.st0{fill:#FFFFFF;}
	.st1{fill:#14EBAA;}
	.st2{fill:#23EBBE;}
	.st3{fill:#32EBCD;}
	.st4{fill:#41EBDC;}
	.st5{fill:#50EBEB;}
	.st6{fill:#64EBFF;}
	.st7{fill:#00EB96;}
</style>
<g id="组_244" transform="translate(104.814 127.548)">
	<path id="路径_73" class="st0 el-menu-item is-active" d="M-0.2-106.2h-0.6v1.5h1.4c1.3,0,2.4-1.1,2.4-2.4c0,0,0,0,0-0.1v-4.6l1.5-0.4v-1.6l-1.5,0.4v-3
		h1.5v-1.5H3.1v-2.7H1.1v2.7h-1.9v1.5h1.9v3.5l-1.9,0.5v1.6l1.9-0.5c0,1.3,0,2.5,0,3.8c0,0.7-0.5,1.2-1.2,1.3
		C-0.1-106.2-0.1-106.2-0.2-106.2L-0.2-106.2z"/>
	<path id="路径_74" class="st0 el-menu-item is-active" d="M15-112.8c0.2-1.1-0.6-2.1-1.7-2.3c-0.1,0-0.2,0-0.3,0h-2v-1.9H15v-1.5H11v-1.9H9v1.9H5.5v1.5
		H9v1.9H5.5v1.5h6.7c0.4,0,0.8,0.4,0.8,0.8c0,0.1,0,0.1,0,0.2c-0.4,1.7-1.4,3.2-2.8,4.1c-1.4-1-2.4-2.6-2.7-4.3H5.6
		c0.3,2.1,1.4,4,3.1,5.3c-1.3,0.7-2.7,1.3-4.2,1.7v1.5c2-0.5,3.8-1.3,5.6-2.2c1.7,1,3.4,1.7,5.3,2.2v-1.5c-1.3-0.4-2.6-1-3.8-1.7
		C13.5-108.7,14.7-110.7,15-112.8z"/>
	<path id="路径_75" class="st0 el-menu-item is-active" d="M-13.3-118.6v-1.7c-1.6,1-4,1-6.1,1v1.5c0.5,0,1.1,0,1.6,0l0.3,0v1.9h-2.3v1.5h2.3
		c-0.4,1.9-1.2,3.6-2.3,5.2v2c1-0.9,1.7-2,2.3-3.3v6.1h1.9v-6.1c0.5,1.2,1.3,2.3,2.3,3.3v-2c-1.1-1.6-1.9-3.3-2.3-5.2h2.3v-1.5h-2.3
		v-2.1c0.4-0.1,0.8-0.1,1.2-0.3c0.3-0.1,0.6-0.2,0.8-0.3C-13.4-118.6-13.3-118.6-13.3-118.6z"/>
	<path id="路径_76" class="st0 el-menu-item is-active" d="M-12.1-114.7v1.5l3.6,1v-1.5L-12.1-114.7z"/>
	<path id="路径_77" class="st0 el-menu-item is-active" d="M-11.7-118.6v1.5l3.2,0.9v-1.5L-11.7-118.6z"/>
	<path id="路径_78" class="st0 el-menu-item is-active" d="M-12.6-110.7v1.5h5.3v4.9h1.9v-4.9h1.8v-1.5h-1.8v-9.8h-1.9v9.8H-12.6z"/>
	<path id="路径_79" class="st0 el-menu-item is-active" d="M-38.4-115c1.8,2.7,1.8,6.3,0,10.7h1.9c1.8-4.4,1.8-8,0-10.7H-38.4z"/>
	<path id="路径_80" class="st0 el-menu-item is-active" d="M-38.4-120.2c0.9,1.4,1.4,3.1,1.3,4.8h1.9c0.1-1.7-0.4-3.4-1.3-4.8H-38.4z"/>
	<path id="路径_81" class="st0 el-menu-item is-active" d="M-33.4-110.7v6.4h7.4c1.3,0,2.4-1.1,2.4-2.4c0,0,0,0,0-0.1v-3.9L-33.4-110.7z M-25.5-107.1
		c0,0.7-0.5,1.2-1.2,1.3c0,0,0,0-0.1,0h-4.8v-3.3h5.4c0.2,0,0.4,0,0.5,0C-25.5-108.4-25.5-107.8-25.5-107.1L-25.5-107.1z"/>
	<path id="路径_82" class="st0 el-menu-item is-active" d="M-24.7-115.9c0.8-0.8,0.7-2.1-0.1-2.9c-0.4-0.4-0.9-0.6-1.4-0.6h-3.4c0.2-0.4,0.2-0.7,0.2-1.1
		h-1.8c-0.2,1.3-1.3,2.5-3.2,3.6v1.5c0.6-0.3,1.2-0.6,1.8-1c0.6-0.3,1.1-0.7,1.6-1.2c0.1-0.1,0.2-0.2,0.3-0.3h3.3
		c0.4,0,0.8,0.4,0.8,0.8c0,0.2-0.1,0.4-0.2,0.6c-0.5,0.5-1,1-1.6,1.4c-0.8-0.5-1.4-1.1-2-1.8c-0.2,0.2-0.5,0.4-0.8,0.6
		s-0.5,0.4-0.8,0.5c0.6,0.6,1.2,1.1,1.9,1.6c-1.4,0.6-2.8,1.1-4.3,1.5v1.5c2-0.5,4-1.1,5.9-2.1c1.9,0.9,3.9,1.6,5.9,2.1v-1.5
		c-1.5-0.4-2.9-0.9-4.3-1.5C-26.1-114.6-25.4-115.2-24.7-115.9z"/>
	<path id="路径_83" class="st0 el-menu-item is-active" d="M-42.5-116.9c0-1.3-1-2.4-2.4-2.5c0,0,0,0-0.1,0h-3.6c0.1-0.4,0.2-0.7,0.2-1.1h-1.9
		c0,0.1,0,0.2,0,0.3c0,0.1,0,0.2-0.1,0.3c0,0.1-0.1,0.2-0.1,0.3c0,0.1-0.1,0.2-0.1,0.3h-5.6v8.7h1.9v-7.1h8.7c0.7,0,1.2,0.5,1.2,1.2
		c0,0,0,0,0,0.1c0,1.9,0,3.9,0,5.8h1.9C-42.5-112.7-42.5-114.8-42.5-116.9z"/>
	<path id="路径_84" class="st0 el-menu-item is-active" d="M-47.7-115.4h1.6l0.5-1.8h-1.6L-47.7-115.4z"/>
	<path id="路径_85" class="st0 el-menu-item is-active" d="M-45.1-113.8v-1.2h-3.2v-2.4h-1.9v2.4h-3.2v1.2h1.4c0,0.9-0.6,1.7-1.4,1.9v1.1
		c1.5-0.3,2.7-1.5,3-3.1h0.2v2.7h1.9v-2.7h0.2c0.3,1.5,1.5,2.8,3,3.1v-1.1c-0.9-0.3-1.4-1-1.4-1.9L-45.1-113.8z"/>
	<path id="路径_86" class="st0 el-menu-item is-active" d="M-53-117.2l0.5,1.8h1.6l-0.5-1.8H-53z"/>
	<path id="路径_87" class="st0 el-menu-item is-active" d="M-57.4-105.8v1.5c4.1,0,6.8-0.8,8.1-2.3c1.3,1.6,4,2.3,8.1,2.3v-1.5c-3.6,0-5.8-0.7-6.7-2.1
		h6.3v-1.5h-6.7v-1.2h-1.9v1.2H-57v1.5h6.3C-51.6-106.5-53.8-105.8-57.4-105.8z"/>
</g>
<g id="组_245" transform="translate(57.428 120.473)">
	<path id="路径_88" class="st1" d="M-48.8-116.2c0-0.8-0.6-1.4-1.4-1.4c-0.8,0-1.4,0.6-1.4,1.4v13c0,0.8,0.6,1.4,1.4,1.4
		c0.8,0,1.4-0.6,1.4-1.4V-116.2z"/>
	<path id="路径_89" class="st2" d="M-44.4-100.8L-44.4-100.8c0,0.8,0.6,1.4,1.4,1.4c0.8,0,1.4-0.6,1.4-1.4V-119
		c0-0.8-0.6-1.4-1.4-1.4c-0.8,0-1.4,0.6-1.4,1.4V-100.8z"/>
	<path id="路径_90" class="st3" d="M-35.9-117.9c0-0.4-0.1-0.7-0.4-1c-0.5-0.6-1.4-0.6-2,0c-0.3,0.3-0.4,0.6-0.4,1v25.3
		c0,0.8,0.6,1.4,1.4,1.4c0.8,0,1.4-0.6,1.4-1.4l0,0L-35.9-117.9z"/>
	<path id="路径_91" class="st4" d="M-33-91.6c0,0.8,0.6,1.4,1.4,1.4c0.8,0,1.4-0.6,1.4-1.4v-18.2c0-0.2,0-0.4-0.1-0.5
		c-0.3-0.7-1.1-1.1-1.8-0.8c-0.6,0.2-0.9,0.7-0.9,1.3L-33-91.6L-33-91.6z"/>
	<path id="路径_92" class="st5" d="M-23-107.3c0-0.8-0.6-1.4-1.4-1.4c-0.8,0-1.4,0.6-1.4,1.4v13c0,0.8,0.6,1.4,1.4,1.4
		c0.8,0,1.4-0.6,1.4-1.4V-107.3z"/>
	<path id="路径_93" class="st6" d="M-20-100.8c0,0.8,0.6,1.4,1.4,1.4c0.8,0,1.4-0.6,1.4-1.4v-9c0-0.8-0.6-1.4-1.4-1.4
		c-0.8,0-1.4,0.6-1.4,1.4V-100.8L-20-100.8z"/>
	<path id="路径_94" class="st7" d="M-57.4-100.8L-57.4-100.8c0,0.8,0.6,1.4,1.4,1.4c0.8,0,1.4-0.6,1.4-1.4v-9
		c0-0.8-0.6-1.4-1.4-1.4c-0.8,0-1.4,0.6-1.4,1.4V-100.8z"/>
</g>
</svg>
